# xmcd
#
# Track frame offsets: 
#        150
#        11837
#        23992
#        35755
#        48225
#        58397
#        70940
#        83165
#        94517
#        105087
#        116305
#        128485
#        139602
#        149485
#        161072
#        171992
#        182732
#        193610
#        202937
#        213052
#        223947
#        235967
#
# Disc length: 3261 seconds
#
# Revision: 3
# Processed by: cddbd v1.5.2PL0 Copyright (c) Steve Scherf et al.
# Submitted via: ExactAudioCopy v1.3
#
DISCID=380cbb16
DTITLE=Speedy West and Jimmy Briant - Flaming Guitars_CD4
DYEAR=1997
DGENRE=Instrumental
TTITLE0=Candy Kisses
TTITLE1=Ain't Nobody's Business But My Own
TTITLE2=I'll Never Be Free
TTITLE3=Wild Card
TTITLE4=Oakie Boogie
TTITLE5=Down South
TTITLE6=I've Turned A Gadabout
TTITLE7=Stop Your Gamblin'
TTITLE8=There's A Blue Sky Way Out Yonder
TTITLE9=Oakie Boogie
TTITLE10=Twice the Lovin' (In Half The Time)
TTITLE11=Crying Steel Guitar Waltz
TTITLE12=Nobody Else Can Love You Like I Do
TTITLE13=Keep It a Secret
TTITLE14=Y'All Come
TTITLE15=The Boys In The Backroom
TTITLE16=Under The Double Eagle
TTITLE17=Hot Lips
TTITLE18=Hotter Than A Pistol
TTITLE19=Keystone Kapers (Bags Of Rags)
TTITLE20=Whistle Stop
TTITLE21=This Must Be The Place
EXTD=
EXTT0=
EXTT1=
EXTT2=
EXTT3=
EXTT4=
EXTT5=
EXTT6=
EXTT7=
EXTT8=
EXTT9=
EXTT10=
EXTT11=
EXTT12=
EXTT13=
EXTT14=
EXTT15=
EXTT16=
EXTT17=
EXTT18=
EXTT19=
EXTT20=
EXTT21=
PLAYORDER=
